<svg width="1414" height="239" viewBox="0 0 1414 239" fill="none" xmlns="http://www.w3.org/2000/svg">
  <path d="M95.2 238.6V140.9L0 4H75.4L131.2 87.5L187.2 4H261.8L166 140.9V238.6H95.2Z" fill="#1D63F2"/>
  <path d="M317.2 119.4C317.2 51.2 364.4 0.4 429.6 0.4C475.6 0.4 512.8 23.8 530 66.4L475.8 99.9C465.8 78.2 449.4 68 429.2 68C398.2 68 374.2 90 374.2 119.4C374.2 149.1 398.2 170.8 429.2 170.8C449.4 170.8 465.8 160.7 475.8 139L530 172.5C512.8 215 475.6 238.5 429.6 238.5C364.4 238.5 317.2 187.6 317.2 119.4Z" fill="#1D63F2"/>
  <path d="M534.4 119.4C534.4 51.7 582.2 0.4 649.4 0.4C716.6 0.4 764.4 51.7 764.4 119.4C764.4 187.2 716.6 238.5 649.4 238.5C582.2 238.5 534.4 187.2 534.4 119.4ZM707.4 119.4C707.4 89.7 682.8 68 649.4 68C616 68 591.4 89.7 591.4 119.4C591.4 149.1 616 170.8 649.4 170.8C682.8 170.8 707.4 149.1 707.4 119.4Z" fill="#1D63F2"/>
  <path d="M1025.2 238.6L1024.6 128.3L973.6 218.1H942.2L891.2 131.9V238.6H826V4H884.2L958.8 138.3L1031.4 4H1089.6L1090.2 238.6H1025.2Z" fill="#1D63F2"/>
  <path d="M1149 238.6V4H1207.2L1281.8 138.3L1354.4 4H1412.6L1413.2 238.6H1348.2L1347.6 128.3L1296.6 218.1H1265.2L1214.2 131.9V238.6H1149Z" fill="#1D63F2" transform="translate(-198.2 0)"/>
  <path d="M1238.8 197.7H1151.8L1135.6 238.6H1063.6L1159.2 4H1228.8L1324.4 238.6H1255L1238.8 197.7ZM1217.8 144L1195.4 82.1L1173 144H1217.8Z" fill="#1D63F2"/>
</svg>
